<svg width="1359" height="310" viewBox="0 0 1359 310" fill="none" xmlns="http://www.w3.org/2000/svg">
<path d="M317.817 94.6369C317.456 90.122 315.763 86.6004 312.738 84.072C309.758 81.5437 305.221 80.2795 299.126 80.2795C295.243 80.2795 292.06 80.7536 289.577 81.7017C287.139 82.6047 285.333 83.8463 284.159 85.4265C282.985 87.0067 282.376 88.8127 282.33 90.8444C282.24 92.5149 282.534 94.0274 283.211 95.3818C283.933 96.6912 285.062 97.8876 286.597 98.9712C288.132 100.01 290.096 100.958 292.489 101.816C294.882 102.673 297.726 103.441 301.022 104.118L312.4 106.556C320.075 108.182 326.644 110.326 332.107 112.99C337.57 115.654 342.04 118.792 345.516 122.403C348.993 125.97 351.544 129.988 353.169 134.458C354.84 138.928 355.697 143.804 355.743 149.086C355.697 158.207 353.417 165.927 348.902 172.248C344.388 178.569 337.931 183.377 329.534 186.673C321.181 189.969 311.135 191.617 299.397 191.617C287.342 191.617 276.822 189.833 267.838 186.267C258.898 182.7 251.945 177.214 246.979 169.81C242.058 162.36 239.574 152.834 239.529 141.231H275.287C275.513 145.475 276.574 149.041 278.47 151.931C280.366 154.82 283.03 157.01 286.462 158.5C289.938 159.99 294.069 160.735 298.855 160.735C302.873 160.735 306.237 160.238 308.946 159.245C311.655 158.252 313.709 156.875 315.109 155.114C316.508 153.353 317.231 151.344 317.276 149.086C317.231 146.964 316.531 145.113 315.176 143.533C313.867 141.908 311.7 140.463 308.675 139.199C305.65 137.89 301.564 136.671 296.417 135.542L282.601 132.562C270.321 129.898 260.636 125.451 253.548 119.22C246.505 112.945 243.006 104.389 243.051 93.5533C243.006 84.7493 245.354 77.0514 250.094 70.4597C254.88 63.8228 261.494 58.6532 269.937 54.951C278.425 51.2488 288.155 49.3977 299.126 49.3977C310.323 49.3977 320.007 51.2714 328.179 55.0187C336.351 58.7661 342.649 64.0485 347.074 70.866C351.544 77.6383 353.801 85.562 353.846 94.6369H317.817Z" fill="white"/>
<path d="M357.83 189.991V85.9683H395.214V189.991H357.83ZM376.522 75.1326C371.465 75.1326 367.131 73.4621 363.519 70.121C359.907 66.78 358.101 62.7618 358.101 58.0663C358.101 53.3708 359.907 49.3525 363.519 46.0115C367.131 42.6705 371.465 41 376.522 41C381.624 41 385.958 42.6705 389.525 46.0115C393.137 49.3525 394.943 53.3708 394.943 58.0663C394.943 62.7618 393.137 66.78 389.525 70.121C385.958 73.4621 381.624 75.1326 376.522 75.1326Z" fill="white"/>
<path d="M401.483 189.991V85.9683H436.97V105.744H438.054C440.221 99.2421 443.923 94.0951 449.161 90.3026C454.398 86.5101 460.628 84.6138 467.852 84.6138C475.166 84.6138 481.465 86.5552 486.747 90.438C492.029 94.2757 495.212 99.3775 496.296 105.744H497.38C499.14 99.3775 502.888 94.2757 508.622 90.438C514.356 86.5552 521.083 84.6138 528.803 84.6138C538.781 84.6138 546.863 87.8194 553.048 94.2305C559.279 100.642 562.394 109.175 562.394 119.83V189.991H525.011V129.311C525.011 124.751 523.859 121.184 521.557 118.611C519.254 115.992 516.161 114.683 512.279 114.683C508.441 114.683 505.393 115.992 503.136 118.611C500.924 121.184 499.818 124.751 499.818 129.311V189.991H464.06V129.311C464.06 124.751 462.908 121.184 460.606 118.611C458.303 115.992 455.21 114.683 451.328 114.683C448.754 114.683 446.542 115.27 444.691 116.444C442.84 117.618 441.395 119.311 440.357 121.523C439.363 123.69 438.867 126.286 438.867 129.311V189.991H401.483Z" fill="white"/>
<path d="M568.054 229V85.9683H605.167V104.118H605.979C607.334 100.597 609.32 97.3684 611.939 94.4337C614.557 91.4539 617.808 89.0836 621.691 87.3228C625.574 85.5168 630.089 84.6138 635.236 84.6138C642.098 84.6138 648.622 86.4424 654.808 90.0994C661.038 93.7565 666.095 99.513 669.978 107.369C673.906 115.225 675.87 125.428 675.87 137.98C675.87 149.989 673.996 159.945 670.249 167.846C666.546 175.747 661.58 181.639 655.349 185.522C649.164 189.404 642.369 191.346 634.965 191.346C630.089 191.346 625.732 190.556 621.894 188.976C618.102 187.35 614.851 185.16 612.142 182.406C609.478 179.607 607.424 176.447 605.979 172.925H605.437V229H568.054ZM604.625 137.98C604.625 143.036 605.279 147.416 606.589 151.118C607.943 154.775 609.839 157.62 612.277 159.651C614.761 161.638 617.718 162.631 621.149 162.631C624.581 162.631 627.493 161.66 629.886 159.719C632.324 157.732 634.175 154.911 635.439 151.254C636.748 147.551 637.403 143.127 637.403 137.98C637.403 132.833 636.748 128.431 635.439 124.774C634.175 121.072 632.324 118.25 629.886 116.308C627.493 114.322 624.581 113.329 621.149 113.329C617.718 113.329 614.761 114.322 612.277 116.308C609.839 118.25 607.943 121.072 606.589 124.774C605.279 128.431 604.625 132.833 604.625 137.98Z" fill="white"/>
<path d="M716.136 51.2939V189.991H678.753V51.2939H716.136Z" fill="white"/>
<path d="M745.161 229C740.872 229 736.786 228.661 732.903 227.984C729.02 227.352 725.612 226.472 722.677 225.343L730.804 198.795C733.874 199.879 736.673 200.579 739.202 200.895C741.775 201.211 743.965 201.03 745.771 200.353C747.622 199.676 748.954 198.389 749.766 196.493L750.579 194.597L714.008 85.9683H753.017L769.813 158.026H770.896L787.962 85.9683H827.242L789.317 198.66C787.421 204.394 784.666 209.541 781.055 214.101C777.488 218.706 772.792 222.341 766.968 225.004C761.144 227.668 753.875 229 745.161 229Z" fill="white"/>
<path d="M878.192 138.522H907.449L918.013 151.795L935.892 172.112L959.189 200.285H925.869L909.345 181.052L898.238 165.069L878.192 138.522ZM958.918 120.643C958.918 136.084 955.916 149.109 949.911 159.719C943.906 170.284 935.802 178.298 925.598 183.761C915.395 189.179 904.017 191.888 891.466 191.888C878.824 191.888 867.402 189.156 857.198 183.693C847.039 178.185 838.958 170.148 832.953 159.584C826.993 148.974 824.013 135.993 824.013 120.643C824.013 105.202 826.993 92.1988 832.953 81.634C838.958 71.024 847.039 63.0101 857.198 57.5922C867.402 52.1292 878.824 49.3977 891.466 49.3977C904.017 49.3977 915.395 52.1292 925.598 57.5922C935.802 63.0101 943.906 71.024 949.911 81.634C955.916 92.1988 958.918 105.202 958.918 120.643ZM920.181 120.643C920.181 112.335 919.074 105.337 916.862 99.6484C914.695 93.9145 911.467 89.5802 907.178 86.6455C902.934 83.6657 897.696 82.1758 891.466 82.1758C885.235 82.1758 879.975 83.6657 875.686 86.6455C871.442 89.5802 868.214 93.9145 866.002 99.6484C863.835 105.337 862.751 112.335 862.751 120.643C862.751 128.95 863.835 135.971 866.002 141.705C868.214 147.393 871.442 151.728 875.686 154.707C879.975 157.642 885.235 159.11 891.466 159.11C897.696 159.11 902.934 157.642 907.178 154.707C911.467 151.728 914.695 147.393 916.862 141.705C919.074 135.971 920.181 128.95 920.181 120.643Z" fill="white"/>
<path d="M964.291 189.991V85.9683H1001.67V189.991H964.291ZM982.982 75.1326C977.926 75.1326 973.591 73.4621 969.979 70.121C966.368 66.78 964.562 62.7618 964.562 58.0663C964.562 53.3708 966.368 49.3525 969.979 46.0115C973.591 42.6705 977.926 41 982.982 41C988.084 41 992.418 42.6705 995.985 46.0115C999.597 49.3525 1001.4 53.3708 1001.4 58.0663C1001.4 62.7618 999.597 66.78 995.985 70.121C992.418 73.4621 988.084 75.1326 982.982 75.1326Z" fill="white"/>
<path d="M1007.4 189.991V51.2939H1044.79V104.118H1045.33C1046.68 100.597 1048.67 97.3684 1051.29 94.4337C1053.91 91.4539 1057.16 89.0836 1061.04 87.3228C1064.92 85.5168 1069.44 84.6138 1074.58 84.6138C1081.45 84.6138 1087.97 86.4424 1094.16 90.0994C1100.39 93.7565 1105.44 99.513 1109.33 107.369C1113.25 115.225 1115.22 125.428 1115.22 137.98C1115.22 149.989 1113.34 159.945 1109.6 167.846C1105.89 175.747 1100.93 181.639 1094.7 185.522C1088.51 189.404 1081.72 191.346 1074.31 191.346C1069.44 191.346 1065.08 190.556 1061.24 188.976C1057.45 187.35 1054.2 185.16 1051.49 182.406C1048.83 179.607 1046.77 176.447 1045.33 172.925H1044.51V189.991H1007.4ZM1043.97 137.98C1043.97 143.036 1044.63 147.416 1045.94 151.118C1047.29 154.775 1049.19 157.62 1051.63 159.651C1054.11 161.638 1057.07 162.631 1060.5 162.631C1063.93 162.631 1066.84 161.66 1069.23 159.719C1071.67 157.732 1073.52 154.911 1074.79 151.254C1076.1 147.551 1076.75 143.127 1076.75 137.98C1076.75 132.833 1076.1 128.431 1074.79 124.774C1073.52 121.072 1071.67 118.25 1069.23 116.308C1066.84 114.322 1063.93 113.329 1060.5 113.329C1057.07 113.329 1054.11 114.322 1051.63 116.308C1049.19 118.25 1047.29 121.072 1045.94 124.774C1044.63 128.431 1043.97 132.833 1043.97 137.98Z" fill="white"/>
<path d="M1155.47 51.2939V189.991H1118.08V51.2939H1155.47Z" fill="white"/>
<path d="M1190.72 191.617C1184.09 191.617 1178.22 190.533 1173.11 188.366C1168.06 186.154 1164.08 182.813 1161.2 178.343C1158.31 173.873 1156.86 168.184 1156.86 161.277C1156.86 155.588 1157.83 150.734 1159.77 146.716C1161.71 142.653 1164.42 139.334 1167.9 136.761C1171.38 134.187 1175.42 132.223 1180.02 130.869C1184.67 129.514 1189.68 128.634 1195.06 128.228C1200.88 127.776 1205.55 127.234 1209.08 126.602C1212.64 125.925 1215.22 125 1216.8 123.826C1218.38 122.607 1219.17 121.004 1219.17 119.017V118.746C1219.17 116.037 1218.13 113.961 1216.05 112.516C1213.97 111.071 1211.31 110.349 1208.06 110.349C1204.49 110.349 1201.58 111.139 1199.32 112.719C1197.11 114.254 1195.78 116.624 1195.33 119.83H1160.92C1161.38 113.509 1163.38 107.685 1166.95 102.357C1170.56 96.9846 1175.82 92.6955 1182.73 89.4899C1189.64 86.2392 1198.26 84.6138 1208.6 84.6138C1216.05 84.6138 1222.73 85.4942 1228.65 87.255C1234.56 88.9707 1239.6 91.3862 1243.75 94.5014C1247.9 97.5716 1251.06 101.183 1253.23 105.337C1255.44 109.446 1256.55 113.915 1256.55 118.746V189.991H1221.6V175.363H1220.79C1218.71 179.246 1216.19 182.384 1213.21 184.777C1210.27 187.17 1206.91 188.908 1203.12 189.991C1199.37 191.075 1195.24 191.617 1190.72 191.617ZM1202.91 168.049C1205.76 168.049 1208.42 167.462 1210.9 166.288C1213.43 165.114 1215.49 163.421 1217.07 161.209C1218.65 158.997 1219.44 156.31 1219.44 153.15V144.481C1218.44 144.888 1217.38 145.271 1216.25 145.633C1215.17 145.994 1214 146.332 1212.73 146.648C1211.51 146.964 1210.2 147.258 1208.8 147.529C1207.45 147.8 1206.03 148.048 1204.54 148.274C1201.65 148.725 1199.28 149.47 1197.43 150.509C1195.62 151.502 1194.27 152.744 1193.36 154.233C1192.51 155.678 1192.08 157.304 1192.08 159.11C1192.08 161.999 1193.09 164.211 1195.12 165.746C1197.16 167.281 1199.75 168.049 1202.91 168.049Z" fill="white"/>
<path d="M234.112 58.879L187.595 187.695C187.281 188.38 186.777 188.961 186.143 189.368C185.509 189.775 184.771 189.991 184.017 189.991C183.264 189.991 182.526 189.775 181.891 189.368C181.257 188.961 180.753 188.38 180.439 187.695L155.391 137.6L105.296 112.552C104.611 112.238 104.031 111.734 103.623 111.1C103.216 110.466 103 109.728 103 108.974C103 108.22 103.216 107.483 103.623 106.848C104.031 106.214 104.611 105.71 105.296 105.396L234.112 58.879Z" stroke="white" stroke-width="22" stroke-linecap="round" stroke-linejoin="round"/>
<path fill-rule="evenodd" clip-rule="evenodd" d="M563.445 255.059V260.343H559.938V268.823C559.938 269.105 559.986 269.343 560.084 269.537C560.181 269.721 560.332 269.862 560.535 269.959C560.739 270.047 561 270.091 561.319 270.091C561.541 270.091 561.797 270.065 562.09 270.012C562.391 269.959 562.612 269.915 562.754 269.88L563.817 275.005C563.489 275.102 563.02 275.221 562.409 275.362C561.806 275.503 561.089 275.595 560.256 275.639C558.574 275.727 557.161 275.555 556.018 275.124C554.876 274.683 554.017 273.992 553.441 273.05C552.865 272.108 552.586 270.928 552.604 269.51V260.343H550V255.059H552.604V250.199H559.938V255.059H563.445ZM567.857 274.41C566.28 273.53 565.071 272.306 564.23 270.738C563.388 269.162 562.968 267.335 562.968 265.257C562.968 263.179 563.388 261.356 564.23 259.788C565.071 258.212 566.28 256.988 567.857 256.116C569.433 255.236 571.329 254.795 573.543 254.795C575.757 254.795 577.653 255.236 579.229 256.116C580.806 256.988 582.015 258.212 582.856 259.788C583.697 261.356 584.118 263.179 584.118 265.257C584.118 267.335 583.697 269.162 582.856 270.738C582.015 272.306 580.806 273.53 579.229 274.41C577.653 275.282 575.757 275.718 573.543 275.718C571.329 275.718 569.433 275.282 567.857 274.41ZM573.596 270.329C574.216 270.329 574.752 270.122 575.203 269.708C575.655 269.294 576.005 268.704 576.253 267.938C576.501 267.172 576.625 266.261 576.625 265.204C576.625 264.138 576.501 263.227 576.253 262.47C576.005 261.704 575.655 261.114 575.203 260.7C574.752 260.286 574.216 260.079 573.596 260.079C572.941 260.079 572.378 260.286 571.909 260.7C571.439 261.114 571.081 261.704 570.833 262.47C570.585 263.227 570.461 264.138 570.461 265.204C570.461 266.261 570.585 267.172 570.833 267.938C571.081 268.704 571.439 269.294 571.909 269.708C572.378 270.122 572.941 270.329 573.596 270.329ZM582.734 255.059H590.068L592.406 267.423H592.565L595.169 255.059H602.29L605.001 267.317H605.16L607.392 255.059H614.726L609.624 275.348H601.706L598.836 264.464H598.624L595.754 275.348H587.836L582.734 255.059ZM620.137 275.665C618.835 275.665 617.684 275.454 616.683 275.031C615.691 274.6 614.911 273.948 614.345 273.076C613.778 272.205 613.494 271.095 613.494 269.748C613.494 268.638 613.685 267.692 614.066 266.908C614.447 266.115 614.978 265.468 615.66 264.966C616.342 264.464 617.135 264.081 618.038 263.817C618.95 263.553 619.933 263.381 620.987 263.302C622.13 263.214 623.047 263.108 623.737 262.985C624.437 262.853 624.942 262.672 625.252 262.443C625.562 262.205 625.717 261.893 625.717 261.506V261.453C625.717 260.924 625.513 260.519 625.106 260.237C624.698 259.956 624.176 259.815 623.538 259.815C622.839 259.815 622.267 259.969 621.824 260.277C621.39 260.576 621.129 261.039 621.041 261.664H614.292C614.38 260.431 614.774 259.295 615.474 258.256C616.182 257.208 617.214 256.371 618.569 255.746C619.925 255.112 621.616 254.795 623.644 254.795C625.106 254.795 626.417 254.967 627.577 255.31C628.737 255.645 629.725 256.116 630.54 256.724C631.354 257.322 631.974 258.027 632.4 258.837C632.834 259.639 633.051 260.51 633.051 261.453V275.348H626.195V272.495H626.036C625.628 273.252 625.132 273.865 624.548 274.331C623.972 274.798 623.312 275.137 622.568 275.348C621.833 275.56 621.023 275.665 620.137 275.665ZM622.528 271.069C623.086 271.069 623.609 270.954 624.096 270.725C624.592 270.496 624.995 270.166 625.305 269.735C625.615 269.303 625.77 268.779 625.77 268.163V266.472C625.575 266.551 625.367 266.626 625.146 266.696C624.933 266.767 624.703 266.833 624.455 266.895C624.216 266.956 623.959 267.013 623.684 267.066C623.419 267.119 623.14 267.168 622.847 267.212C622.281 267.3 621.815 267.445 621.452 267.648C621.098 267.841 620.832 268.083 620.655 268.374C620.487 268.656 620.403 268.973 620.403 269.325C620.403 269.889 620.602 270.32 621.001 270.62C621.399 270.919 621.908 271.069 622.528 271.069ZM634.048 255.059H641.169V258.917H641.382C641.754 257.49 642.343 256.446 643.149 255.786C643.963 255.125 644.915 254.795 646.005 254.795C646.324 254.795 646.638 254.822 646.948 254.875C647.267 254.919 647.573 254.985 647.865 255.073V257.947C648.495 257.055 649.231 256.361 650.075 255.865C651.297 255.152 652.581 254.795 653.927 254.795C654.937 254.795 655.823 254.971 656.585 255.324C657.346 255.667 657.984 256.129 658.498 256.711C659.011 257.283 659.401 257.913 659.667 258.6H659.773V248.297H667.107V275.348H659.826V272.02H659.667C659.383 272.707 658.976 273.323 658.444 273.869C657.922 274.406 657.284 274.833 656.531 275.15C655.787 275.459 654.937 275.613 653.981 275.613C652.528 275.613 651.191 275.234 649.968 274.477C648.755 273.719 647.781 272.57 647.045 271.029C646.319 269.488 645.956 267.546 645.956 265.204C645.956 263.611 646.117 262.212 646.44 261.007C645.944 260.952 645.516 260.924 645.155 260.924C644.437 260.924 643.791 261.087 643.215 261.413C642.648 261.73 642.201 262.179 641.873 262.76C641.545 263.333 641.382 264.006 641.382 264.781V275.348H634.048V255.059ZM656.691 270.012C657.364 270.012 657.94 269.818 658.418 269.431C658.905 269.034 659.277 268.48 659.534 267.766C659.799 267.044 659.933 266.19 659.933 265.204C659.933 264.2 659.799 263.341 659.534 262.628C659.277 261.906 658.905 261.356 658.418 260.977C657.94 260.59 657.364 260.396 656.691 260.396C656.018 260.396 655.442 260.59 654.964 260.977C654.494 261.356 654.131 261.906 653.874 262.628C653.626 263.341 653.502 264.2 653.502 265.204C653.502 266.208 653.626 267.071 653.874 267.793C654.131 268.506 654.494 269.057 654.964 269.444C655.442 269.823 656.018 270.012 656.691 270.012ZM686.853 261.664H680.104C680.069 261.25 679.922 260.893 679.666 260.594C679.409 260.295 679.077 260.066 678.669 259.907C678.271 259.74 677.828 259.656 677.341 259.656C676.712 259.656 676.172 259.771 675.72 260C675.268 260.229 675.047 260.554 675.056 260.977C675.047 261.276 675.175 261.554 675.441 261.809C675.715 262.065 676.242 262.263 677.022 262.404L681.167 263.143C683.257 263.522 684.812 264.16 685.83 265.059C686.858 265.948 687.376 267.141 687.384 268.638C687.376 270.082 686.942 271.337 686.083 272.403C685.232 273.459 684.068 274.278 682.588 274.86C681.118 275.432 679.44 275.718 677.553 275.718C674.436 275.718 671.996 275.084 670.233 273.816C668.479 272.548 667.501 270.875 667.297 268.797H674.577C674.675 269.44 674.994 269.937 675.534 270.289C676.083 270.633 676.774 270.805 677.606 270.805C678.279 270.805 678.833 270.69 679.267 270.461C679.71 270.232 679.936 269.906 679.945 269.484C679.936 269.096 679.741 268.788 679.36 268.559C678.988 268.33 678.403 268.145 677.606 268.004L673.993 267.37C671.911 267.009 670.353 266.322 669.316 265.309C668.28 264.297 667.766 262.994 667.775 261.4C667.766 259.991 668.138 258.798 668.891 257.82C669.653 256.834 670.738 256.085 672.146 255.575C673.563 255.055 675.242 254.795 677.181 254.795C680.131 254.795 682.456 255.403 684.156 256.618C685.866 257.833 686.765 259.515 686.853 261.664ZM692.634 255.059H699.968V275.348H692.634V255.059ZM696.301 252.946C695.309 252.946 694.459 252.62 693.75 251.969C693.042 251.317 692.687 250.533 692.687 249.617C692.687 248.702 693.042 247.918 693.75 247.266C694.459 246.615 695.309 246.289 696.301 246.289C697.302 246.289 698.152 246.615 698.852 247.266C699.56 247.918 699.915 248.702 699.915 249.617C699.915 250.533 699.56 251.317 698.852 251.969C698.152 252.62 697.302 252.946 696.301 252.946ZM708.531 275.348V269.595L709.63 268.2L713.792 275.348H721.379H722.189H728.713V263.936C728.722 263.267 728.846 262.694 729.085 262.219C729.333 261.734 729.678 261.365 730.121 261.109C730.573 260.845 731.096 260.713 731.689 260.713C732.628 260.713 733.35 260.999 733.855 261.571C734.368 262.144 734.621 262.932 734.612 263.936V275.348H741.945V262.404C741.954 260.924 741.662 259.612 741.069 258.467C740.484 257.323 739.656 256.424 738.584 255.773C737.521 255.121 736.268 254.795 734.824 254.795C733.319 254.795 732.03 255.161 730.958 255.892C729.887 256.614 729.12 257.622 728.66 258.917H728.447V248.297H721.379V255.059H713.739L708.797 261.875H708.531V248.297H701.198V275.348H708.531ZM721.379 274.059L715.036 263.951L721.379 255.824V274.059ZM750.393 248.297V275.324C750.244 275.141 750.1 274.961 749.967 274.797L749.823 274.618C749.649 274.401 749.449 274.153 749.379 274.065C749.346 274.025 749.287 273.951 749.214 273.861C749.13 273.756 749.029 273.63 748.935 273.514C748.762 273.297 748.615 273.114 748.61 273.107C748.604 273.097 748.62 273.071 748.656 273.029C748.686 272.995 748.739 272.929 748.772 272.885C748.804 272.839 748.853 272.765 748.879 272.722C748.905 272.678 748.955 272.58 748.991 272.505C749.027 272.43 749.08 272.292 749.111 272.197C749.141 272.104 749.179 271.967 749.194 271.895C749.21 271.824 749.228 271.721 749.234 271.667C749.24 271.614 749.245 271.432 749.245 271.263C749.245 271.045 749.24 270.92 749.228 270.836C749.219 270.77 749.198 270.662 749.182 270.596C749.167 270.53 749.139 270.428 749.121 270.368C749.102 270.309 749.064 270.207 749.038 270.14C749.011 270.074 748.965 269.978 748.938 269.924C748.91 269.87 748.862 269.788 748.831 269.742C748.8 269.695 748.744 269.617 748.705 269.571C748.668 269.524 748.604 269.454 748.565 269.416C748.526 269.377 748.452 269.31 748.397 269.265C748.343 269.219 748.299 269.172 748.295 269.158C748.292 269.143 748.275 268.99 748.257 268.819L748.244 268.689C748.231 268.565 748.22 268.458 748.217 268.425L748.21 268.345C748.293 268.277 748.34 268.229 748.367 268.193C748.395 268.158 748.432 268.096 748.45 268.055C748.467 268.014 748.486 267.948 748.493 267.907C748.5 267.856 748.5 267.81 748.491 267.759C748.484 267.718 748.461 267.646 748.438 267.599C748.409 267.534 748.379 267.493 748.314 267.428C748.253 267.367 748.194 267.323 748.11 267.274C748.013 267.22 747.989 267.201 747.989 267.181C747.989 267.166 748.002 267.084 748.017 266.999C748.025 266.953 748.034 266.909 748.041 266.873C748.048 266.841 748.054 266.816 748.056 266.807C748.063 266.787 748.103 266.742 748.152 266.699C748.198 266.658 748.276 266.576 748.325 266.517C748.374 266.457 748.432 266.38 748.454 266.346C748.476 266.311 748.525 266.221 748.562 266.146C748.6 266.071 748.651 265.945 748.675 265.867C748.701 265.788 748.732 265.673 748.744 265.61C748.756 265.548 748.772 265.451 748.779 265.394C748.784 265.337 748.79 265.207 748.79 265.103C748.79 265 748.782 264.862 748.773 264.796C748.764 264.73 748.741 264.612 748.722 264.534C748.703 264.455 748.671 264.348 748.651 264.294C748.631 264.241 748.591 264.148 748.562 264.089C748.533 264.03 748.483 263.94 748.451 263.89C748.418 263.84 748.36 263.762 748.321 263.719C748.283 263.674 748.211 263.601 748.162 263.556C748.113 263.51 748.032 263.444 747.981 263.41C747.931 263.376 747.889 263.341 747.889 263.331C747.889 263.322 747.874 263.204 747.856 263.069L747.823 262.824C747.912 262.723 747.951 262.665 747.966 262.631C747.989 262.579 747.994 262.552 747.994 262.477C747.994 262.411 747.987 262.372 747.971 262.334C747.958 262.306 747.913 262.244 747.869 262.197L747.79 262.112C747.756 261.671 747.743 261.489 747.739 261.423L747.732 261.303C747.9 261.162 747.979 261.082 748.02 261.035C748.058 260.988 748.113 260.917 748.138 260.876C748.165 260.835 748.21 260.756 748.236 260.699C748.264 260.642 748.303 260.547 748.322 260.488C748.342 260.429 748.369 260.329 748.382 260.266C748.402 260.17 748.405 260.113 748.406 259.913C748.406 259.726 748.402 259.648 748.385 259.559C748.374 259.497 748.346 259.386 748.323 259.314C748.301 259.243 748.263 259.144 748.24 259.098C748.217 259.051 748.171 258.969 748.136 258.915C748.102 258.862 748.023 258.765 747.959 258.699L747.845 258.579L747.595 257.584C747.749 257.437 747.783 257.394 747.812 257.337C747.847 257.265 747.851 257.251 747.851 257.162C747.851 257.08 747.846 257.053 747.822 257.001C747.806 256.967 747.77 256.913 747.744 256.882C747.717 256.852 747.655 256.8 747.606 256.767C747.557 256.733 747.487 256.693 747.45 256.676C747.414 256.66 747.375 256.637 747.364 256.627C747.354 256.617 747.342 256.585 747.338 256.556C747.335 256.528 747.307 256.339 747.277 256.135L747.242 255.897C747.235 255.846 747.226 255.789 747.218 255.73C747.223 255.728 747.229 255.726 747.234 255.725C747.31 255.699 747.415 255.655 747.467 255.625C747.519 255.597 747.596 255.549 747.639 255.518C747.683 255.489 747.759 255.424 747.811 255.375C747.862 255.326 747.943 255.232 747.992 255.166C748.042 255.098 748.105 254.993 748.138 254.921C748.172 254.852 748.211 254.757 748.226 254.71C748.241 254.664 748.263 254.582 748.274 254.528C748.291 254.452 748.295 254.383 748.295 254.209C748.295 254.035 748.291 253.966 748.274 253.89C748.263 253.836 748.241 253.754 748.226 253.708C748.211 253.661 748.172 253.566 748.138 253.497C748.105 253.425 748.042 253.32 747.992 253.252C747.943 253.186 747.864 253.094 747.816 253.048C747.768 253.001 747.694 252.938 747.651 252.908C747.607 252.877 747.533 252.829 747.484 252.802C747.435 252.774 747.355 252.737 747.306 252.717C747.257 252.699 747.179 252.673 747.134 252.66C747.088 252.648 747.011 252.632 746.963 252.626C746.917 252.619 746.811 252.613 746.731 252.615H746.73C746.65 252.616 746.543 252.623 746.494 252.631C746.446 252.639 746.371 252.656 746.328 252.668C746.284 252.681 746.215 252.705 746.172 252.721C746.129 252.738 746.054 252.774 746.005 252.802C745.957 252.829 745.881 252.877 745.839 252.908C745.795 252.938 745.721 253.001 745.673 253.048C745.625 253.094 745.546 253.186 745.498 253.252C745.449 253.319 745.384 253.426 745.35 253.497C745.318 253.566 745.278 253.661 745.263 253.708C745.247 253.754 745.226 253.836 745.215 253.89C745.199 253.966 745.194 254.035 745.194 254.209C745.194 254.383 745.199 254.452 745.215 254.528C745.226 254.582 745.247 254.664 745.263 254.71C745.278 254.757 745.316 254.852 745.35 254.921C745.383 254.992 745.449 255.099 745.498 255.166C745.546 255.232 745.628 255.326 745.679 255.375C745.73 255.424 745.807 255.489 745.85 255.518C745.892 255.549 745.97 255.597 746.022 255.625C746.074 255.655 746.179 255.699 746.256 255.725C746.26 255.726 746.264 255.727 746.268 255.729L746.232 255.97L746.219 256.06C746.176 256.352 746.141 256.589 746.139 256.606C746.135 256.632 746.122 256.641 746.052 256.667C746.009 256.684 745.938 256.722 745.894 256.75C745.852 256.78 745.789 256.833 745.756 256.871C745.722 256.909 745.682 256.964 745.668 256.995C745.648 257.037 745.64 257.077 745.635 257.149C745.631 257.241 745.633 257.249 745.67 257.326C745.692 257.372 745.735 257.434 745.773 257.475C745.81 257.513 745.851 257.551 745.864 257.561L745.891 257.576C745.793 257.97 745.733 258.214 745.698 258.357C745.67 258.471 745.657 258.521 745.654 258.532C745.648 258.562 745.613 258.608 745.53 258.697C745.467 258.765 745.389 258.861 745.355 258.911C745.322 258.96 745.272 259.052 745.243 259.115C745.214 259.177 745.177 259.27 745.161 259.32C745.145 259.37 745.122 259.456 745.111 259.511C745.099 259.566 745.084 259.673 745.078 259.751C745.072 259.833 745.072 259.948 745.077 260.032C745.083 260.111 745.095 260.216 745.105 260.266C745.115 260.316 745.136 260.398 745.152 260.448C745.167 260.498 745.198 260.58 745.218 260.631C745.239 260.681 745.283 260.767 745.315 260.824C745.349 260.881 745.412 260.97 745.457 261.024C745.503 261.077 745.573 261.149 745.613 261.183C745.653 261.217 745.702 261.259 745.721 261.274L745.757 261.303C745.744 261.482 745.734 261.62 745.726 261.725L745.714 261.894L745.704 262.026L745.697 262.112C745.581 262.236 745.535 262.294 745.521 262.323C745.5 262.366 745.495 262.391 745.495 262.477C745.495 262.568 745.499 262.586 745.526 262.642C745.544 262.676 745.583 262.731 745.613 262.762L745.668 262.819C745.631 263.075 745.613 263.193 745.604 263.249L745.589 263.349C745.472 263.432 745.406 263.482 745.367 263.514C745.326 263.547 745.255 263.616 745.206 263.669C745.159 263.721 745.088 263.813 745.05 263.873C745.012 263.932 744.952 264.038 744.919 264.106C744.885 264.175 744.84 264.285 744.816 264.351C744.794 264.417 744.766 264.512 744.755 264.562C744.744 264.612 744.726 264.71 744.715 264.779C744.703 264.864 744.697 264.972 744.697 265.121C744.697 265.263 744.704 265.38 744.716 265.462C744.726 265.531 744.744 265.629 744.756 265.679C744.768 265.729 744.792 265.811 744.807 265.861C744.823 265.911 744.857 266.001 744.883 266.061C744.909 266.12 744.955 266.212 744.986 266.266C745.016 266.319 745.066 266.396 745.095 266.436C745.125 266.477 745.213 266.573 745.292 266.652L745.433 266.796C745.488 267.087 745.5 267.18 745.498 267.189C745.494 267.198 745.453 267.229 745.404 267.256C745.356 267.284 745.291 267.326 745.261 267.348C745.23 267.371 745.18 267.418 745.15 267.452C745.119 267.486 745.078 267.546 745.059 267.583C745.04 267.62 745.015 267.681 745.006 267.719C744.996 267.756 744.988 267.816 744.988 267.85C744.988 267.884 744.996 267.941 745.006 267.975C745.016 268.009 745.04 268.069 745.059 268.106C745.081 268.15 745.127 268.208 745.185 268.266L745.276 268.357C745.242 268.701 745.223 268.886 745.211 268.99C745.199 269.093 745.182 269.184 745.174 269.193C745.167 269.202 745.125 269.238 745.083 269.272C745.041 269.306 744.968 269.371 744.924 269.416C744.878 269.46 744.813 269.533 744.778 269.576C744.743 269.62 744.681 269.707 744.641 269.77C744.601 269.833 744.535 269.953 744.496 270.038C744.456 270.122 744.405 270.245 744.383 270.311C744.361 270.377 744.33 270.48 744.316 270.539C744.302 270.599 744.279 270.711 744.267 270.79C744.255 270.869 744.243 271.012 744.24 271.109C744.235 271.206 744.237 271.378 744.243 271.491C744.249 271.628 744.263 271.744 744.282 271.838C744.297 271.917 744.327 272.041 744.348 272.115C744.371 272.188 744.404 272.289 744.423 272.338C744.442 272.385 744.484 272.482 744.518 272.551C744.552 272.619 744.611 272.725 744.648 272.784C744.687 272.844 744.754 272.938 744.798 272.995L744.809 273.009C744.848 273.06 744.878 273.1 744.878 273.103C744.877 273.107 744.836 273.16 744.785 273.223C744.753 273.264 744.668 273.369 744.568 273.492L744.404 273.696C744.245 273.893 743.935 274.278 743.715 274.551C743.495 274.823 743.27 275.102 743.216 275.172C743.17 275.227 743.127 275.283 743.106 275.309C743.101 275.315 743.098 275.32 743.096 275.322L743.077 275.348H743.059V248.297H750.393ZM747.158 255.322C747.186 255.305 747.213 255.288 747.234 255.275C747.279 255.242 747.354 255.179 747.4 255.131C747.447 255.084 747.513 255.004 747.546 254.954C747.579 254.905 747.625 254.823 747.647 254.773C747.67 254.723 747.702 254.639 747.716 254.585C747.732 254.531 747.751 254.435 747.757 254.368C747.767 254.277 747.767 254.219 747.757 254.123C747.751 254.054 747.732 253.955 747.716 253.901C747.702 253.848 747.67 253.763 747.647 253.713C747.625 253.663 747.579 253.581 747.546 253.532C747.513 253.482 747.448 253.404 747.404 253.358C747.36 253.312 747.285 253.248 747.237 253.215C747.19 253.183 747.111 253.137 747.063 253.114C747.014 253.09 746.928 253.058 746.873 253.041C746.858 253.036 746.838 253.031 746.817 253.027C746.838 253.165 746.87 253.371 746.899 253.571C746.919 253.706 746.949 253.91 746.983 254.136L746.984 254.142C747.022 254.401 747.064 254.689 747.1 254.932C747.119 255.059 747.139 255.191 747.158 255.322ZM746.675 253.003C746.649 253.161 746.608 253.432 746.568 253.702C746.512 254.071 746.435 254.598 746.394 254.87C746.372 255.022 746.339 255.243 746.306 255.466C746.273 255.46 746.242 255.452 746.218 255.445C746.163 255.428 746.078 255.396 746.029 255.372C745.98 255.35 745.903 255.305 745.858 255.275C745.812 255.242 745.736 255.179 745.691 255.131C745.644 255.084 745.579 255.004 745.545 254.954C745.512 254.905 745.467 254.823 745.444 254.773C745.421 254.723 745.39 254.639 745.375 254.585C745.36 254.531 745.341 254.432 745.334 254.363C745.324 254.267 745.324 254.209 745.334 254.118C745.341 254.052 745.36 253.955 745.375 253.901C745.39 253.848 745.421 253.763 745.444 253.713C745.467 253.663 745.512 253.581 745.545 253.532C745.579 253.482 745.644 253.402 745.691 253.355C745.736 253.308 745.812 253.244 745.858 253.212C745.903 253.181 745.98 253.137 746.029 253.114C746.078 253.09 746.163 253.058 746.218 253.041C746.272 253.025 746.363 253.007 746.418 253.002C746.472 252.996 746.522 252.992 746.528 252.991C746.533 252.991 746.591 252.994 746.656 253.001C746.662 253.001 746.668 253.002 746.675 253.003ZM757.309 275.665C756.007 275.665 754.855 275.454 753.855 275.031C752.863 274.6 752.083 273.948 751.516 273.076C750.949 272.205 750.666 271.095 750.666 269.748C750.666 268.638 750.857 267.692 751.237 266.908C751.618 266.115 752.15 265.468 752.832 264.966C753.513 264.464 754.306 264.081 755.21 263.817C756.122 263.553 757.105 263.381 758.159 263.302C759.302 263.214 760.218 263.108 760.909 262.985C761.609 262.853 762.114 262.672 762.424 262.443C762.734 262.205 762.889 261.893 762.889 261.506V261.453C762.889 260.924 762.685 260.519 762.278 260.237C761.87 259.956 761.347 259.815 760.71 259.815C760.01 259.815 759.439 259.969 758.996 260.277C758.562 260.576 758.301 261.039 758.212 261.664H751.463C751.552 260.431 751.946 259.295 752.646 258.256C753.354 257.208 754.386 256.371 755.741 255.746C757.096 255.112 758.788 254.795 760.816 254.795C762.278 254.795 763.588 254.967 764.749 255.31C765.909 255.645 766.896 256.116 767.711 256.724C768.526 257.322 769.146 258.027 769.571 258.837C770.005 259.639 770.222 260.51 770.222 261.453V275.348H763.367V272.495H763.208C762.8 273.252 762.304 273.865 761.72 274.331C761.144 274.798 760.484 275.137 759.74 275.348C759.005 275.56 758.195 275.665 757.309 275.665ZM759.7 271.069C760.258 271.069 760.781 270.954 761.268 270.725C761.764 270.496 762.167 270.166 762.477 269.735C762.787 269.303 762.942 268.779 762.942 268.163V266.472C762.747 266.551 762.539 266.626 762.318 266.696C762.105 266.767 761.875 266.833 761.626 266.895C761.387 266.956 761.131 267.013 760.856 267.066C760.59 267.119 760.311 267.168 760.019 267.212C759.452 267.3 758.987 267.445 758.624 267.648C758.27 267.841 758.004 268.083 757.827 268.374C757.659 268.656 757.575 268.973 757.575 269.325C757.575 269.889 757.774 270.32 758.172 270.62C758.571 270.919 759.08 271.069 759.7 271.069ZM776.906 275.665C775.604 275.665 774.452 275.454 773.452 275.031C772.46 274.6 771.68 273.948 771.113 273.076C770.547 272.205 770.263 271.095 770.263 269.748C770.263 268.638 770.453 267.692 770.834 266.908C771.215 266.115 771.747 265.468 772.429 264.966C773.111 264.464 773.903 264.081 774.807 263.817C775.719 263.553 776.702 263.381 777.756 263.302C778.899 263.214 779.816 263.108 780.506 262.985C781.206 262.853 781.711 262.672 782.021 262.443C782.331 262.205 782.486 261.893 782.486 261.506V261.453C782.486 260.924 782.282 260.519 781.875 260.237C781.467 259.956 780.945 259.815 780.307 259.815C779.607 259.815 779.036 259.969 778.593 260.277C778.159 260.576 777.898 261.039 777.809 261.664H771.06C771.149 260.431 771.543 259.295 772.243 258.256C772.951 257.208 773.983 256.371 775.338 255.746C776.693 255.112 778.385 254.795 780.413 254.795C781.875 254.795 783.185 254.967 784.346 255.31C785.506 255.645 786.494 256.116 787.308 256.724C788.123 257.322 788.744 258.027 789.169 258.837C789.602 259.639 789.82 260.51 789.82 261.453V275.348H782.964V272.495H782.805C782.397 273.252 781.901 273.865 781.317 274.331C780.741 274.798 780.081 275.137 779.337 275.348C778.602 275.56 777.792 275.665 776.906 275.665ZM779.297 271.069C779.855 271.069 780.378 270.954 780.865 270.725C781.361 270.496 781.764 270.166 782.074 269.735C782.384 269.303 782.539 268.779 782.539 268.163V266.472C782.344 266.551 782.136 266.626 781.914 266.696C781.702 266.767 781.472 266.833 781.224 266.895C780.985 266.956 780.728 267.013 780.453 267.066C780.187 267.119 779.908 267.168 779.616 267.212C779.049 267.3 778.584 267.445 778.221 267.648C777.867 267.841 777.601 268.083 777.424 268.374C777.256 268.656 777.171 268.973 777.171 269.325C777.171 269.889 777.371 270.32 777.769 270.62C778.168 270.919 778.677 271.069 779.297 271.069ZM809.469 261.664H802.721C802.686 261.25 802.54 260.893 802.283 260.594C802.026 260.295 801.694 260.066 801.285 259.907C800.887 259.74 800.444 259.656 799.957 259.656C799.329 259.656 798.789 259.771 798.336 260C797.884 260.229 797.664 260.554 797.671 260.977C797.664 261.276 797.791 261.554 798.058 261.809C798.331 262.065 798.86 262.263 799.637 262.404L803.784 263.143C805.872 263.522 807.428 264.16 808.447 265.059C809.474 265.948 809.993 267.141 810 268.638C809.993 270.082 809.557 271.337 808.699 272.403C807.848 273.459 806.684 274.278 805.205 274.86C803.735 275.432 802.055 275.718 800.17 275.718C797.053 275.718 794.612 275.084 792.849 273.816C791.096 272.548 790.118 270.875 789.913 268.797H797.194C797.292 269.44 797.61 269.937 798.15 270.289C798.701 270.633 799.39 270.805 800.224 270.805C800.896 270.805 801.449 270.69 801.884 270.461C802.327 270.232 802.552 269.906 802.562 269.484C802.552 269.096 802.356 268.788 801.977 268.559C801.606 268.33 801.021 268.145 800.224 268.004L796.61 267.37C794.527 267.009 792.969 266.322 791.932 265.309C790.896 264.297 790.382 262.994 790.392 261.4C790.382 259.991 790.754 258.798 791.507 257.82C792.27 256.834 793.355 256.085 794.761 255.575C796.18 255.055 797.857 254.795 799.799 254.795C802.747 254.795 805.073 255.403 806.772 256.618C808.482 257.833 809.381 259.515 809.469 261.664Z" fill="url(#paint0_linear_132_2)"/>
<path d="M668.213 232.914V234.201H662.791V232.914H668.213ZM664.415 242.801V231.549C664.415 230.983 664.55 230.511 664.821 230.133C665.092 229.755 665.443 229.472 665.875 229.283C666.308 229.094 666.764 229 667.244 229C667.624 229 667.934 229.03 668.174 229.09C668.414 229.15 668.593 229.206 668.711 229.257L668.266 230.571C668.187 230.545 668.078 230.513 667.938 230.474C667.803 230.435 667.624 230.416 667.401 230.416C666.89 230.416 666.521 230.543 666.294 230.796C666.072 231.049 665.96 231.42 665.96 231.909V242.801H664.415Z" fill="#ECECEC"/>
<path d="M669.144 242.801V232.914H670.637V234.407H670.741C670.925 233.918 671.257 233.521 671.737 233.216C672.217 232.911 672.758 232.759 673.361 232.759C673.474 232.759 673.616 232.761 673.786 232.766C673.957 232.77 674.086 232.776 674.173 232.785V234.33C674.12 234.317 674 234.298 673.813 234.272C673.629 234.242 673.435 234.227 673.23 234.227C672.741 234.227 672.304 234.328 671.92 234.529C671.54 234.727 671.239 235.001 671.016 235.353C670.798 235.701 670.689 236.098 670.689 236.544V242.801H669.144Z" fill="#ECECEC"/>
<path d="M678.549 243.007C677.641 243.007 676.845 242.794 676.159 242.369C675.478 241.944 674.946 241.35 674.561 240.586C674.182 239.822 673.992 238.93 673.992 237.909C673.992 236.879 674.182 235.98 674.561 235.212C674.946 234.443 675.478 233.847 676.159 233.422C676.845 232.997 677.641 232.785 678.549 232.785C679.457 232.785 680.252 232.997 680.933 233.422C681.618 233.847 682.151 234.443 682.531 235.212C682.915 235.98 683.107 236.879 683.107 237.909C683.107 238.93 682.915 239.822 682.531 240.586C682.151 241.35 681.618 241.944 680.933 242.369C680.252 242.794 679.457 243.007 678.549 243.007ZM678.549 241.642C679.239 241.642 679.807 241.468 680.252 241.121C680.697 240.773 681.027 240.316 681.241 239.75C681.455 239.183 681.562 238.569 681.562 237.909C681.562 237.248 681.455 236.632 681.241 236.061C681.027 235.49 680.697 235.029 680.252 234.677C679.807 234.325 679.239 234.149 678.549 234.149C677.86 234.149 677.292 234.325 676.847 234.677C676.401 235.029 676.072 235.49 675.858 236.061C675.644 236.632 675.537 237.248 675.537 237.909C675.537 238.569 675.644 239.183 675.858 239.75C676.072 240.316 676.401 240.773 676.847 241.121C677.292 241.468 677.86 241.642 678.549 241.642Z" fill="#ECECEC"/>
<path d="M684.231 242.801V232.914H685.724V234.458H685.855C686.064 233.931 686.403 233.521 686.87 233.229C687.337 232.933 687.898 232.785 688.553 232.785C689.216 232.785 689.769 232.933 690.209 233.229C690.655 233.521 691.002 233.931 691.251 234.458H691.355C691.613 233.948 691.999 233.542 692.515 233.242C693.03 232.937 693.647 232.785 694.368 232.785C695.267 232.785 696.003 233.062 696.575 233.615C697.147 234.164 697.432 235.021 697.432 236.184V242.801H695.887V236.184C695.887 235.454 695.684 234.933 695.278 234.619C694.872 234.306 694.394 234.149 693.844 234.149C693.137 234.149 692.589 234.36 692.2 234.78C691.812 235.197 691.617 235.724 691.617 236.364V242.801H690.046V236.029C690.046 235.467 689.86 235.014 689.489 234.671C689.118 234.323 688.64 234.149 688.055 234.149C687.653 234.149 687.278 234.255 686.929 234.465C686.584 234.675 686.304 234.967 686.09 235.34C685.881 235.709 685.776 236.136 685.776 236.621V242.801H684.231Z" fill="#ECECEC"/>
<defs>
<linearGradient id="paint0_linear_132_2" x1="680.314" y1="287.666" x2="680.314" y2="246.751" gradientUnits="userSpaceOnUse">
<stop offset="0.0538605" stop-color="#0CBBC5"/>
<stop offset="0.971499" stop-color="#C7EF89"/>
</linearGradient>
</defs>
</svg>
